:SAMPLES-PER-SECOND 30
:FULLY-SPECIFIED
:DEGREES
1
root  82.7891 40.2936 -1.16347 -161.696 -87.2155 160.197
RightUpLeg  0.799549 -7.77771 -3.21127
RightLeg  5.59832 -8.17096 3.90192
RightFoot  -4.55957 0.177506 -3.67785
RightToes  -1.33073e-015 0 -3.6325e-017
Spine  3.97855 1.86256 0.18239
Spine1  1.00101 2.00429 -0.0969883
HEad  4.91755 -5.27264 1.22861
LeftShoulder1  1.02914 -2.67659 -9.1988
LeftArm  -20.1482 9.23571 -8.5828
LeftForeArm  22.5673 -2.60535 -0.498326
LeftHand  -0.244104 0.0205437 5.32207
RightShoulder  0.459232 -0.140973 5.93555
RightArm  -24.3335 -4.51166 4.89438
RightForeArm  0.593969 3.07804 1.77697
RightHand  -1.89996 5.84461 -19.7499
LeftUpLeg  1.28382 4.30377 0.13129
LeftLeg  2.87257 19.3544 -4.04497
LeftFoot  -4.1718 -0.166707 3.16722
LeftToes  -7.82198e-011 2.46994e-011 -7.94165e-012
2
root  82.7766 40.2936 -1.1611 -162.018 -87.164 160.569
RightUpLeg  0.799396 -7.75479 -3.19659
RightLeg  5.49697 -8.19005 3.90729
RightFoot  -4.56129 0.177399 -3.67619
RightToes  -1.33073e-015 0 -3.6325e-017
Spine  3.90398 1.87908 0.267915
Spine1  1.05832 2.04648 -0.237257
HEad  4.66163 -5.14772 1.28416
LeftShoulder1  1.01057 -2.6253 -9.0153
LeftArm  -20.2295 9.18825 -8.7961
LeftForeArm  22.7863 -2.53055 -0.459226
LeftHand  -0.244104 0.0205437 5.32207
RightShoulder  0.471746 -0.0627847 5.99601
RightArm  -24.2445 -4.55264 4.81582
RightForeArm  0.084894 3.03502 1.81218
RightHand  -1.8593 5.48551 -19.9528
LeftUpLeg  1.24084 4.33165 0.13304
LeftLeg  2.90518 19.3756 -4.05607
LeftFoot  -4.18882 -0.166707 3.16722
LeftToes  -7.82198e-011 2.46994e-011 -7.94165e-012
3
root  82.7559 40.2936 -1.15551 -162.098 -87.142 160.72
RightUpLeg  0.801093 -7.745 -3.1971
RightLeg  5.39276 -8.19064 3.92505
RightFoot  -4.56852 0.176036 -3.65494
RightToes  -1.33073e-015 0 -3.6325e-017
Spine  3.83994 1.88381 0.309848
Spine1  1.16707 2.06655 -0.3223
HEad  4.28775 -5.03965 1.39159
LeftShoulder1  0.966404 -2.41978 -8.81906
LeftArm  -20.2039 9.00011 -9.06104
LeftForeArm  22.8521 -2.44933 -0.487378
LeftHand  -0.244104 0.0205437 5.32207
RightShoulder  0.48394 0.00411752 6.09359
RightArm  -23.9901 -4.60984 4.67076
RightForeArm  -0.81155 3.15805 1.95772
RightHand  -1.79118 5.01637 -20.0741
LeftUpLeg  1.17998 4.34041 0.128471
LeftLeg  2.94983 19.3738 -4.05429
LeftFoot  -4.2108 -0.166707 3.16722
LeftToes  -7.82198e-011 2.46994e-011 -7.94165e-012
4
root  82.7369 40.2936 -1.14612 -161.604 -87.2361 160.263
RightUpLeg  0.812044 -7.77243 -3.21861
RightLeg  5.38117 -8.2326 3.94373
RightFoot  -4.5758 0.172172 -3.59467
RightToes  -1.33073e-015 0 -3.6325e-017
Spine  3.84502 1.84598 0.224769
Spine1  1.30688 2.00124 -0.177076
HEad  3.78297 -4.97148 1.47098
LeftShoulder1  0.935649 -2.23169 -8.81311
LeftArm  -20.0328 8.8124 -9.14384
LeftForeArm  22.4877 -2.3886 -0.586129
LeftHand  -0.244104 0.0205437 5.32207
RightShoulder  0.487265 0.0147862 6.15279
RightArm  -23.7838 -4.57873 4.52577
RightForeArm  -1.41277 3.34262 2.10058
RightHand  -1.7253 4.71295 -19.9177
LeftUpLeg  1.16847 4.29509 0.100156
LeftLeg  2.93339 19.342 -4.02836
LeftFoot  -4.23507 -0.166775 3.16828
LeftToes  -7.82198e-011 2.46994e-011 -7.94165e-012
5
root  82.7183 40.2936 -1.13493 -160.724 -87.3741 159.398
RightUpLeg  0.833979 -7.79916 -3.24138
RightLeg  5.40121 -8.34284 3.94119
RightFoot  -4.58353 0.170261 -3.56486
RightToes  -1.33073e-015 0 -3.6325e-017
Spine  3.89196 1.79619 0.10901
Spine1  1.38525 1.91146 0.0282793
HEad  3.27905 -4.8172 1.46863
LeftShoulder1  0.944014 -2.25664 -8.89613
LeftArm  -19.835 8.79228 -9.11744
LeftForeArm  21.708 -2.26903 -0.677418
LeftHand  -0.244104 0.0205437 5.32207
RightShoulder  0.485016 -0.00176215 6.15406
RightArm  -23.8166 -4.44437 4.46019
RightForeArm  -1.62121 3.34385 2.11826
RightHand  -1.69681 4.5813 -19.8478
LeftUpLeg  1.19261 4.22636 0.05533
LeftLeg  2.86995 19.2985 -3.99844
LeftFoot  -4.23927 -0.167116 3.17358
LeftToes  -7.82198e-011 2.46994e-011 -7.94165e-012
6
root  82.6938 40.2936 -1.1261 -160.229 -87.4012 158.95
RightUpLeg  0.844264 -7.78023 -3.25035
RightLeg  5.35811 -8.39705 3.91751
RightFoot  -4.60543 0.170631 -3.57063
RightToes  -1.33073e-015 0 -3.6325e-017
Spine  3.9742 1.80908 0.0435764
Spine1  1.28305 1.90548 0.110702
HEad  3.04224 -4.61815 1.3938
LeftShoulder1  0.969745 -2.40307 -8.93236
LeftArm  -19.9506 8.89709 -9.0634
LeftForeArm  21.8677 -2.27893 -0.61033
LeftHand  -0.244104 0.0205437 5.32207
RightShoulder  0.476785 -0.0484059 6.096
RightArm  -23.9444 -4.33429 4.50186
RightForeArm  -1.67555 3.22029 2.06336
RightHand  -1.72427 4.60874 -20.1045
LeftUpLeg  1.18926 4.19102 0.0148473
LeftLeg  2.84008 19.2835 -3.98793
LeftFoot  -4.22437 -0.167072 3.1729
LeftToes  -7.82198e-011 2.46994e-011 -7.94165e-012
7
root  82.6645 40.2936 -1.12035 -160.991 -87.2809 159.803
RightUpLeg  0.800105 -7.7272 -3.23442
RightLeg  5.30524 -8.30404 3.89224
RightFoot  -4.63385 0.167149 -3.51634
RightToes  -1.33073e-015 0 -3.6325e-017
Spine  4.10119 1.90326 0.00890254
Spine1  1.04917 1.9878 0.157055
HEad  3.05954 -4.51747 1.32729
LeftShoulder1  0.978626 -2.43883 -8.98968
LeftArm  -19.9665 8.95359 -9.01905
LeftForeArm  22.0002 -2.42905 -0.616006
LeftHand  -0.244104 0.0205437 5.32207
RightShoulder  0.459164 -0.145877 5.95535
RightArm  -23.9547 -4.31911 4.59775
RightForeArm  -1.45054 3.1936 2.03541
RightHand  -1.76689 4.73484 -20.3399
LeftUpLeg  1.15363 4.20153 0.00278819
LeftLeg  2.82999 19.3714 -4.00063
LeftFoot  -4.24007 -0.166236 3.15988
LeftToes  -7.82198e-011 2.46994e-011 -7.94165e-012
8
root  82.6397 40.2936 -1.11457 -162.345 -87.1484 161.251
RightUpLeg  0.697129 -7.68937 -3.2017
RightLeg  5.34561 -8.1966 3.87343
RightFoot  -4.64975 0.160563 -3.41364
RightToes  -1.33073e-015 0 -3.6325e-017
Spine  4.22133 1.99541 -0.02506
Spine1  0.897974 2.05412 0.291468
HEad  3.05185 -4.56122 1.34033
LeftShoulder1  0.974845 -2.35792 -9.16829
LeftArm  -19.8748 8.92202 -8.88832
LeftForeArm  21.9716 -2.58894 -0.679855
LeftHand  -0.244104 0.0205437 5.32207
RightShoulder  0.438327 -0.255821 5.75422
RightArm  -23.9364 -4.30028 4.68113
RightForeArm  -0.801842 3.24794 2.01012
RightHand  -1.77268 4.82676 -20.2279
LeftUpLeg  1.11609 4.21371 0.0113443
LeftLeg  2.79627 19.5356 -4.00981
LeftFoot  -4.29938 -0.164757 3.13687
LeftToes  -7.82198e-011 2.46994e-011 -7.94165e-012
9
root  82.6194 40.2936 -1.10715 -162.498 -87.141 161.47
RightUpLeg  0.630405 -7.69334 -3.20029
RightLeg  5.39648 -8.2367 3.86462
RightFoot  -4.67281 0.159029 -3.38973
RightToes  -1.33073e-015 0 -3.6325e-017
Spine  4.266 2.011 -0.0669841
Spine1  0.938106 2.04224 0.433907
HEad  2.65481 -4.77431 1.26864
LeftShoulder1  0.990174 -2.3718 -9.41348
LeftArm  -19.8221 8.86386 -8.67391
LeftForeArm  21.8798 -2.57339 -0.699563
LeftHand  -0.244104 0.0205437 5.32207
RightShoulder  0.425872 -0.31497 5.59618
RightArm  -24.0271 -4.22436 4.70969
RightForeArm  -0.274127 3.23055 1.95614
RightHand  -1.76061 4.87983 -19.9956
LeftUpLeg  1.06748 4.19072 -0.00537618
LeftLeg  2.81388 19.5923 -3.98556
LeftFoot  -4.34742 -0.163495 3.11723
LeftToes  -7.82198e-011 2.46994e-011 -7.94165e-012
10
root  82.5927 40.2927 -1.09817 -161.074 -87.2411 160.09
RightUpLeg  0.675348 -7.7351 -3.26064
RightLeg  5.32935 -8.33869 3.88699
RightFoot  -4.73585 0.16028 -3.40924
RightToes  -1.33073e-015 0 -3.6325e-017
Spine  4.25287 1.9898 -0.13292
Spine1  1.06564 2.00155 0.519224
HEad  2.45209 -5.0139 1.20817
LeftShoulder1  1.0327 -2.54896 -9.64997
LeftArm  -19.8252 8.79867 -8.44196
LeftForeArm  21.8997 -2.44202 -0.673489
LeftHand  -0.244104 0.0205437 5.32207
RightShoulder  0.422183 -0.326787 5.52639
RightArm  -24.0544 -4.21974 4.65936
RightForeArm  -0.475897 3.19966 1.96394
RightHand  -1.77318 4.98818 -19.932
LeftUpLeg  1.02213 4.152 -0.0614525
LeftLeg  2.89093 19.4846 -3.95684
LeftFoot  -4.38831 -0.164245 3.14248
LeftToes  -7.82198e-011 2.46994e-011 -7.94165e-012
11
root  82.5564 40.2878 -1.08501 -160.01 -87.3349 159.081
RightUpLeg  0.721373 -7.81358 -3.33757
RightLeg  5.27143 -8.33139 3.95445
RightFoot  -4.82377 0.155196 -3.32998
RightToes  -1.33073e-015 0 -3.6325e-017
Spine  4.24873 2.01142 -0.160574
Spine1  1.16584 2.0124 0.576878
HEad  2.38985 -5.22789 1.14307
LeftShoulder1  1.07107 -2.72512 -9.80263
LeftArm  -19.7536 8.73167 -8.30395
LeftForeArm  22.0446 -2.46437 -0.703956
LeftHand  -0.244104 0.0205437 5.32207
RightShoulder  0.419497 -0.345527 5.54719
RightArm  -23.8777 -4.36199 4.50573
RightForeArm  -1.01228 3.30519 2.06436
RightHand  -1.79091 5.08424 -19.948
LeftUpLeg  1.01871 4.13337 -0.104433
LeftLeg  2.88849 19.426 -3.97261
LeftFoot  -4.54525 -0.161805 3.18675
LeftToes  -7.82198e-011 2.46994e-011 -7.94165e-012
